<svg version="1.1" baseProfile="full" width="732" height="489.33" viewBox="0 0 5490 3670"  xmlns="http://www.w3.org/2000/svg" xmlns:xlink="http://www.w3.org/1999/xlink" xmlns:ev="http://www.w3.org/2001/xml-events" >\n <title>Comparative Spend 2004-5</title>\n<desc>Created by Causeway SVG engine - SharpPlot v3.71.0</desc>\n<g stroke-miterlimit="100">\n <rect x="80" y="60" width="5410" height="3610" fill="silver"/>\n <rect x="43" y="33" width="5405" height="3605" fill="white" stroke-width="5" stroke="black"/>\n<desc>Paint the paper =====</desc>\n <g fill="White" >\n  <rect x="45" y="35" width="5400" height="3600" />\n </g>\n<desc>Border =====</desc>\n<desc>Y-axis labels</desc>\n <g font-family="Times New Roman" font-size="90" text-anchor="end" >\n  <text x="437" y="3055" >0</text>\n  <text x="437" y="2749" >10</text>\n  <text x="437" y="2443" >20</text>\n  <text x="437" y="2136" >30</text>\n  <text x="437" y="1830" >40</text>\n  <text x="437" y="1524" >50</text>\n  <text x="437" y="1218" >60</text>\n  <text x="437" y="911" >70</text>\n  <text x="437" y="605" >80</text>\n </g>\n<desc>Heading, subheading and footnotes =====</desc>\n<desc>Heading</desc>\n <g fill="Navy" font-family="Times New Roman" font-size="210" text-anchor="middle" >\n  <text x="2745" y="369" >Comparative Spend 2004-5</text>\n </g>\n<desc>Region =====</desc>\n<desc>for X-axis labels</desc>\n <g font-family="Times New Roman" font-size="90" text-anchor="middle" >\n  <text x="896" y="3150" >Proj-A2</text>\n  <text x="1678" y="3150" >Proj-18</text>\n  <text x="2459" y="3150" >Proj-Q5</text>\n  <text x="3241" y="3150" >Proj-T6</text>\n  <text x="4023" y="3150" >Proj-T8</text>\n  <text x="4804" y="3150" >Proj-32</text>\n </g>\n<desc>X-Axis Ticks =====</desc>\n<desc>X-Axis Grid</desc>\n <path fill="none" stroke-width="2.01" stroke="Silver" d="M505 3025L505 575M1287 3025L1287 575M2068 3025L2068 575M2850 3025L2850 575M3632 3025L3632 575M4413 3025L4413 575M5195 3025L5195 575"/>\n<desc>X-Axis tickmarks</desc>\n <path fill="none" stroke-width="8.23" stroke="Black" d="M505 3025L505 3072M1287 3025L1287 3072M2068 3025L2068 3072M2850 3025L2850 3072M3632 3025L3632 3072M4413 3025L4413 3072M5195 3025L5195 3072"/>\n<desc>Y-Axis Ticks =====</desc>\n<desc>Y-Axis tickmarks</desc>\n <path fill="none" stroke-width="8.23" stroke="Black" d="M505 3025L470 3025M505 2719L470 2719M505 2413L470 2413M505 2106L470 2106M505 1800L470 1800M505 1494L470 1494M505 1188L470 1188M505 881L470 881M505 575L470 575"/>\n<desc>Start of Barchart ===========</desc>\n <g stroke-width="4" stroke="Black" fill="Green" >\n  <rect x="583" y="2841" width="313" height="184" />\n  <rect x="1365" y="2474" width="313" height="551" />\n  <rect x="2147" y="2198" width="313" height="827" />\n  <rect x="2928" y="2076" width="313" height="949" />\n  <rect x="3710" y="1800" width="313" height="1225" />\n  <rect x="4492" y="1708" width="313" height="1317" />\n </g>\n <g stroke-width="4" stroke="Black" fill="Maroon" >\n  <rect x="896" y="2504" width="313" height="521" />\n  <rect x="1678" y="2014" width="313" height="1011" />\n  <rect x="2459" y="1739" width="313" height="1286" />\n  <rect x="3241" y="1371" width="313" height="1654" />\n  <rect x="4023" y="851" width="313" height="2174" />\n  <rect x="4804" y="636" width="313" height="2389" />\n </g>\n<desc>Axes =====</desc>\n <path fill="none" stroke-width="13.7" stroke="Black" d="M505 3072L505 528M458 3025L5242 3025"/>\n<desc>Data value labels ... </desc>\n<desc>Flip colour </desc>\n <g transform="translate(782 2801) rotate(-90)" fill="Green" font-family="Arial" font-weight="bold" font-size="100" >\n  <text>6 Units</text>\n </g>\n<desc>Unflip colour </desc>\n <g transform="translate(1563 2534) rotate(-90)" fill="LightYellow" font-family="Arial" font-weight="bold" font-size="100" text-anchor="end" >\n  <text>18 Units</text>\n </g>\n <g transform="translate(2345 2258) rotate(-90)" fill="LightYellow" font-family="Arial" font-weight="bold" font-size="100" text-anchor="end" >\n  <text>27 Units</text>\n </g>\n <g transform="translate(3127 2136) rotate(-90)" fill="LightYellow" font-family="Arial" font-weight="bold" font-size="100" text-anchor="end" >\n  <text>31 Units</text>\n </g>\n <g transform="translate(3908 1860) rotate(-90)" fill="LightYellow" font-family="Arial" font-weight="bold" font-size="100" text-anchor="end" >\n  <text>40 Units</text>\n </g>\n <g transform="translate(4690 1768) rotate(-90)" fill="LightYellow" font-family="Arial" font-weight="bold" font-size="100" text-anchor="end" >\n  <text>43 Units</text>\n </g>\n<desc>Data value labels ... </desc>\n <g transform="translate(1094 2564) rotate(-90)" fill="LightYellow" font-family="Arial" font-weight="bold" font-size="100" text-anchor="end" >\n  <text>17 Units</text>\n </g>\n <g transform="translate(1876 2074) rotate(-90)" fill="LightYellow" font-family="Arial" font-weight="bold" font-size="100" text-anchor="end" >\n  <text>33 Units</text>\n </g>\n <g transform="translate(2658 1799) rotate(-90)" fill="LightYellow" font-family="Arial" font-weight="bold" font-size="100" text-anchor="end" >\n  <text>42 Units</text>\n </g>\n <g transform="translate(3439 1431) rotate(-90)" fill="LightYellow" font-family="Arial" font-weight="bold" font-size="100" text-anchor="end" >\n  <text>54 Units</text>\n </g>\n <g transform="translate(4221 911) rotate(-90)" fill="LightYellow" font-family="Arial" font-weight="bold" font-size="100" text-anchor="end" >\n  <text>71 Units</text>\n </g>\n <g transform="translate(5003 696) rotate(-90)" fill="LightYellow" font-family="Arial" font-weight="bold" font-size="100" text-anchor="end" >\n  <text>78 Units</text>\n </g>\n<desc>Key =====</desc>\n<desc>Block key</desc>\n <g stroke-width="4" stroke="Black" fill="Green" >\n  <rect x="605" y="3280" width="170" height="70" />\n </g>\n<desc>Block key</desc>\n <g stroke-width="4" stroke="Black" fill="Maroon" >\n  <rect x="1307" y="3280" width="170" height="70" />\n </g>\n <g fill="Navy" font-family="Times New Roman" font-size="100" >\n  <text x="825" y="3350" >Last Year</text>\n </g>\n <g fill="Navy" font-family="Times New Roman" font-size="100" >\n  <text x="1527" y="3350" >This Year</text>\n </g>\n<desc>Reset to original origin</desc>\n</g>\n</svg>
